<svg width="24" height="24" viewBox="0 0 24 24" fill="none" xmlns="http://www.w3.org/2000/svg">
<g opacity="0.8">
<path d="M12 21.0001C10.7369 19.9227 9.56619 18.7416 8.5 17.4691C6.9 15.5581 5 12.7121 5 10.0001C4.99931 8.61505 5.40951 7.26094 6.17869 6.10912C6.94788 4.9573 8.04147 4.05955 9.32107 3.52949C10.6007 2.99943 12.0087 2.86088 13.3671 3.13138C14.7255 3.40189 15.9731 4.06928 16.952 5.04909C17.6038 5.69795 18.1203 6.46963 18.4719 7.31947C18.8234 8.1693 19.0029 9.08042 19 10.0001C19 12.7121 17.1 15.5581 15.5 17.4691C14.4338 18.7416 13.2631 19.9227 12 21.0001ZM12 5.00009C10.6744 5.00168 9.40356 5.52897 8.46622 6.46631C7.52888 7.40365 7.00159 8.6745 7 10.0001C7 11.1661 7.527 13.1851 10.035 16.1861C10.6531 16.9242 11.309 17.6298 12 18.3001C12.691 17.6305 13.3472 16.9259 13.966 16.1891C16.473 13.1841 17 11.1651 17 10.0001C16.9984 8.6745 16.4711 7.40365 15.5338 6.46631C14.5964 5.52897 13.3256 5.00168 12 5.00009ZM12 13.0001C11.2044 13.0001 10.4413 12.684 9.87868 12.1214C9.31607 11.5588 9 10.7957 9 10.0001C9 9.20444 9.31607 8.44138 9.87868 7.87877C10.4413 7.31616 11.2044 7.00009 12 7.00009C12.7957 7.00009 13.5587 7.31616 14.1213 7.87877C14.6839 8.44138 15 9.20444 15 10.0001C15 10.7957 14.6839 11.5588 14.1213 12.1214C13.5587 12.684 12.7957 13.0001 12 13.0001Z" fill="white"/>
</g>
</svg>
